<?xml version="1.0" encoding="UTF-8"?>
<svg xmlns="http://www.w3.org/2000/svg" xmlns:xlink="http://www.w3.org/1999/xlink" viewBox="0 0 500 500" width="500px" height="500px">
<g id="surface191525">
<path style=" stroke:none;fill-rule:nonzero;fill:rgb(100%,100%,100%);fill-opacity:1;" d="M 250 20 C 150.585938 20 70 46.875 70 80 L 70 250 C 70 300.820312 124.179688 440.820312 250 470 C 375.820312 440.820312 430 300.820312 430 250 L 430 80 C 430 46.875 349.414062 20 250 20 Z M 250 40 C 355 40 410 69.726562 410 80 L 410 250 C 410 291.367188 366.679688 405.234375 270 442.96875 L 270 380 L 230 380 L 230 442.96875 C 133.320312 405.234375 90 291.367188 90 250 L 90 80 C 90 69.726562 145 40 250 40 Z M 170 110 C 150.039062 110 128.554688 118.789062 110 150 C 129.53125 136.40625 146.132812 130 160 130 C 186.875 130 200.273438 161.484375 204.375 165.625 C 210.234375 171.484375 219.726562 171.484375 225.625 165.625 C 231.484375 159.765625 231.484375 150.273438 225.625 144.375 C 221.953125 140.742188 204.375 110 170 110 Z M 330 110 C 295.625 110 278.046875 140.742188 274.375 144.375 C 268.515625 150.273438 268.515625 159.765625 274.375 165.625 C 280.273438 171.484375 289.765625 171.484375 295.625 165.625 C 299.726562 161.484375 313.125 130 340 130 C 353.867188 130 370.46875 136.40625 390 150 C 371.445312 118.789062 349.960938 110 330 110 Z M 160 170 C 143.59375 170 129.179688 175.9375 120 185 C 129.179688 194.0625 143.59375 200 160 200 C 176.40625 200 190.820312 194.0625 200 185 C 190.820312 175.9375 176.40625 170 160 170 Z M 340 170 C 323.59375 170 309.179688 175.9375 300 185 C 309.179688 194.0625 323.59375 200 340 200 C 356.40625 200 370.820312 194.0625 380 185 C 370.820312 175.9375 356.40625 170 340 170 Z M 110 260 L 160 340 L 230 340 L 250 320 L 270 340 L 340 340 L 390 260 L 330 310 L 290 310 L 260 280 L 240 280 L 210 310 L 170 310 Z M 110 260 "/>
</g>
</svg>
